PathFileType	4	(X/Y/Z)	/Users/visionmauri/2_5_3_f_1_Sports2D/2_5_3_f_1_Sports2D_px_person00.trc
DataRate	CameraRate	NumFrames	NumMarkers	Units	OrigDataRate	OrigDataStartFrame	OrigNumFrames
30.0	30.0	12	22	m	30.0	127	341
Frame#	Time	Hip			RHip			RKnee			RAnkle			RBigToe			RSmallToe			RHeel			LHip			LKnee			LAnkle			LBigToe			LSmallToe			LHeel			Neck			Head			Nose			RShoulder			RElbow			RWrist			LShoulder			LElbow			LWrist			
		X1	Y1	Z1	X2	Y2	Z2	X3	Y3	Z3	X4	Y4	Z4	X5	Y5	Z5	X6	Y6	Z6	X7	Y7	Z7	X8	Y8	Z8	X9	Y9	Z9	X10	Y10	Z10	X11	Y11	Z11	X12	Y12	Z12	X13	Y13	Z13	X14	Y14	Z14	X15	Y15	Z15	X16	Y16	Z16	X17	Y17	Z17	X18	Y18	Z18	X19	Y19	Z19	X20	Y20	Z20	X21	Y21	Z21	X22	Y22	Z22
127	4.2457843137254905	569.6596443925823	821.7717475176565	0.0	595.0611144566352	823.8715182143761	0.0	561.2071591769162	990.293998614441	0.0	578.2819997189912	1156.1661327140528	0.0	491.252634228354	1176.867544801054	0.0	507.73544284639115	1173.2163025132058	0.0	588.2260283603209	1183.395265897996	0.0	546.412576812557	828.8790406610319	0.0	543.7234200495875	997.3693650639592	0.0	573.3261660502693	1161.6351376675598	0.0	476.5285089527973	1185.3338031924889	0.0	483.1203917232317	1192.5064561598704	0.0	586.2916119469756	1189.0464846874002	0.0	508.9846033515588	604.2465284725474	0.0	442.6262720321326	513.5264962685238	0.0	452.81818297916914	590.055564491062	0.0	575.7119646977319	621.0087562762204	0.0	647.8730076314192	718.9420355660658	0.0	652.0064211294589	814.8561392073645	0.0	470.5493770552285	625.9470725172868	0.0	454.92166315272505	742.8377973970555	0.0	407.8031140736512	821.5468679214891	0.0
128	4.27921568627451	567.8745296497929	823.3024985275836	0.0	593.7288270890202	825.5032755646314	0.0	561.0532859885795	991.0604373673284	0.0	577.4232992151303	1155.7622120165327	0.0	491.5883281865251	1176.2195870558335	0.0	506.6988439710146	1172.7978409015432	0.0	587.4073215462718	1183.4856944914102	0.0	547.5601015909178	829.8861564462582	0.0	542.6313035034825	996.7502484410674	0.0	571.070849760775	1161.4884485675047	0.0	471.14036904642387	1185.1287580877308	0.0	477.20144680186854	1192.6758877070965	0.0	586.0567019679999	1189.627048703537	0.0	509.63009959726435	604.0156883639108	0.0	442.3634967001433	513.3509972420592	0.0	453.12828550981465	590.2669281414247	0.0	573.7030358771303	621.1420125503948	0.0	642.230756929184	722.937193452283	0.0	641.0088334456715	816.9254985123956	0.0	474.5205903960498	625.679915211407	0.0	457.33766909857235	742.4414106613983	0.0	408.9314322348084	821.1194629359999	0.0
129	4.312647058823529	566.3901584977299	826.1869089946457	0.0	592.1898814898351	828.3813136515162	0.0	561.046068523123	993.645839580394	0.0	577.2393005192799	1156.854900162783	0.0	490.3928345522766	1177.1968133412295	0.0	506.47394396854804	1173.57111179049	0.0	587.3367898396601	1184.3339532882867	0.0	548.5760884524178	831.8273798798256	0.0	541.0876541176307	996.6411969716602	0.0	570.2971292454198	1161.6749858699225	0.0	463.01087640211244	1184.8034172157013	0.0	467.34956023962525	1192.999807175516	0.0	584.1339584538422	1189.4463316137965	0.0	510.21328795571674	603.762066873127	0.0	441.3369740835272	513.4114278813598	0.0	452.4859305388408	590.5455218758542	0.0	572.2110958020464	621.2591344593103	0.0	637.4000302451383	727.0656424463136	0.0	627.9469011534417	818.7529001059132	0.0	478.934751076659	624.1863964113721	0.0	460.5364394389772	742.9799146974008	0.0	410.0217977462869	821.3556259546274	0.0
130	4.346078431372549	565.5042553844861	828.7362424848518	0.0	590.7407316976802	830.6316855833512	0.0	560.7699428303317	996.2556864281956	0.0	577.56343379588	1158.340459715252	0.0	484.2335426596838	1179.444396364312	0.0	505.1151501025086	1175.5979781319718	0.0	587.5418769479359	1185.235687077724	0.0	549.9734588723143	833.3935214043977	0.0	540.6660619218327	996.8007064089026	0.0	572.0003538171551	1162.168160524508	0.0	456.84073197399357	1184.722849805266	0.0	460.84170730298337	1193.2601713975603	0.0	583.5291846020264	1188.4888910978552	0.0	511.1174135564355	603.6118993112327	0.0	439.4877420845904	513.5066057225198	0.0	451.05058648777674	590.8373817446318	0.0	570.3838200913921	621.1339265876886	0.0	633.7699717024229	728.9407602178143	0.0	610.6532252084983	815.6714390025982	0.0	483.74139209360413	622.6535025404886	0.0	465.5238194688939	743.4550907533634	0.0	410.9463404011898	821.4579414404415	0.0
131	4.379509803921569	565.0697237445531	829.5010858114705	0.0	588.9118611939172	830.874285643824	0.0	560.0436260928177	997.3873339863127	0.0	577.8515268971611	1159.0229968684566	0.0	473.1454386988947	1181.5954301141926	0.0	501.0153652444676	1177.7694408143368	0.0	587.3875858685175	1185.8668905769982	0.0	553.191484055936	833.8431525569691	0.0	541.9177791467654	996.3701102955591	0.0	569.1947729950404	1162.801695587862	0.0	453.63170653521394	1185.53658285695	0.0	460.0119452161376	1194.2490961964813	0.0	584.9518991868165	1187.9536528294927	0.0	512.4251516603363	603.2722799526045	0.0	438.1748503798005	512.942998585011	0.0	450.26324925921006	590.3471213618989	0.0	567.7298326679347	620.0280867783737	0.0	631.6882486330223	727.3168205839679	0.0	589.820585400361	803.7884820359943	0.0	488.6986648749464	621.9029308853643	0.0	471.58520878242433	742.9031668443986	0.0	411.9041994054168	820.9129568168021	0.0
132	4.412941176470588	565.178243506033	828.8444500654618	0.0	586.3123257448378	830.1475432144509	0.0	559.097220471629	997.4496583290145	0.0	577.3396750958603	1159.1528947974205	0.0	464.4451752148924	1183.0513472294592	0.0	495.6385490031996	1179.077574458384	0.0	586.9206496865846	1186.0369443347436	0.0	558.2933725563627	833.7942000642993	0.0	542.8501754275161	995.437457253576	0.0	550.9290226643889	1163.433228893339	0.0	449.7173364613509	1186.9661798878797	0.0	459.55814199199455	1195.6440884154722	0.0	579.3877193449301	1188.32461616657	0.0	513.5335932559551	602.4090095168282	0.0	438.37255719616144	512.0474592332749	0.0	450.4959462198309	588.591825079669	0.0	564.6695517593388	618.0650508992455	0.0	630.0819821911845	724.6673950743171	0.0	571.950607982962	789.3879033514388	0.0	494.07728984602437	621.321270974297	0.0	477.81324205169113	741.9154480847748	0.0	413.7858032145181	820.2217657014824	0.0
133	4.446372549019608	565.1513540260654	828.1911177010961	0.0	581.723329314867	830.4067399391876	0.0	558.459178300877	997.8011197405319	0.0	576.0508674445855	1159.9693020661641	0.0	468.06795170464	1184.2089147643132	0.0	493.44086876228397	1179.833681882706	0.0	586.4165806907736	1186.079806049252	0.0	563.4929795414948	833.9295655917798	0.0	541.385805181046	994.388392187708	0.0	521.5040241083316	1163.8585329850284	0.0	442.254682304685	1188.269300318851	0.0	454.40899924319774	1196.3264618972817	0.0	557.5567116044028	1188.819587066966	0.0	513.8594980073756	601.3381314374623	0.0	439.91172540290603	511.4512143359902	0.0	450.5825711587769	586.3215532268125	0.0	560.2694474151444	616.9949112207864	0.0	623.5006566553432	725.4952559374105	0.0	563.1362231481055	785.1880417177023	0.0	501.02762845787976	620.1337424279868	0.0	484.65914002214043	741.858913867065	0.0	417.2120122141176	819.8952530253692	0.0
134	4.479803921568627	563.4593667681718	828.5098118310829	0.0	572.5841531343291	831.8951736818402	0.0	558.2745690499725	998.8002971693243	0.0	575.4579946752661	1161.7600556353818	0.0	485.483887000009	1185.7522643598197	0.0	497.17174273886513	1181.0257177902604	0.0	586.258739763402	1186.846856005181	0.0	567.4967893973701	834.2480913219571	0.0	538.4175842051375	992.7822675053594	0.0	499.95779008343385	1163.783013177472	0.0	432.71297415671637	1189.4439061844175	0.0	446.00410206987857	1196.3450112850808	0.0	527.4746664112045	1188.7472844058918	0.0	513.4330291296534	600.7736051783045	0.0	442.2333031266504	510.4039587740551	0.0	449.9172337017511	584.1007158656606	0.0	550.8362611363248	618.6864161543128	0.0	603.529446977074	731.2248551323128	0.0	557.7946523499666	794.9403144459199	0.0	510.08675210961974	618.8634354192305	0.0	493.0824970101265	743.5652794554534	0.0	422.0116993061647	819.3058939954885	0.0
135	4.5132352941176475	559.8975566834445	829.6550924535327	0.0	559.2851314828857	833.3148210272597	0.0	558.1022819598978	999.5479974336408	0.0	576.595893799317	1163.5485086296765	0.0	505.3233846847691	1187.9949028722542	0.0	503.52943698717485	1182.753347574313	0.0	586.7048037375874	1188.4041338761358	0.0	569.9565570797939	834.4934451761038	0.0	536.2404099114618	990.6005980932998	0.0	494.1563275444749	1163.3583156805669	0.0	425.2756405402617	1190.569213794865	0.0	440.05598632008883	1196.246895262849	0.0	506.979227211578	1188.1703556172715	0.0	512.9914727815432	600.8761459927894	0.0	444.8051560922285	508.0688121650708	0.0	449.0530309245226	581.6397743547129	0.0	535.2860116233112	623.0159151314712	0.0	568.9789585838207	738.5222734438926	0.0	541.4211111471096	808.6447486085153	0.0	519.7109695553978	618.614146250824	0.0	503.612986651794	746.3992092786071	0.0	428.9255626272266	817.0306110032575	0.0
136	4.546666666666667	556.201735401588	831.1172190420948	0.0	547.0601259861045	834.1931253352774	0.0	557.6770694946804	999.8516450435093	0.0	578.3978027744881	1164.5829749691684	0.0	514.4289614181173	1190.1541472051974	0.0	507.4961741987233	1184.176489592497	0.0	587.3052016757185	1189.467613028081	0.0	570.3644816767018	834.7996689986446	0.0	535.7666433638366	989.553608123839	0.0	495.63025932897375	1163.6309995368008	0.0	422.9738477786685	1191.4789948587443	0.0	440.2972324620361	1196.3622923250646	0.0	501.5274942072187	1187.6067319529388	0.0	513.2292122335898	601.229331852818	0.0	447.7407439129397	505.38030719494907	0.0	448.56118564999036	579.423614122951	0.0	519.8518433364092	627.4497300217142	0.0	532.993561220206	742.7604758024679	0.0	509.9107118269855	812.411656372134	0.0	527.4562200199194	619.2732074246288	0.0	516.3387844304237	748.6500873606797	0.0	439.35706736397884	813.0608584960478	0.0
137	4.580098039215686	554.0220916860883	832.7059586993531	0.0	540.2262922188186	835.1535971891191	0.0	556.7501718505737	1000.4967883054022	0.0	579.1174966386918	1164.7671538871368	0.0	512.6156101513841	1191.0704846087224	0.0	508.4588259511013	1184.8063974884733	0.0	587.5278528459057	1189.022071623419	0.0	568.8201143885726	835.4688876532523	0.0	536.0197758226955	991.4571991112475	0.0	496.5559745398398	1165.1431920394396	0.0	424.56028008296744	1192.437621794717	0.0	444.37078687375373	1197.3583413074548	0.0	503.6461432009432	1187.6408160936774	0.0	513.9642033553043	601.4882736023396	0.0	451.50104513311396	503.4027905372939	0.0	448.5335626912792	578.0538026203786	0.0	511.6843158727369	629.6914408257566	0.0	511.7393085271418	742.0878701494023	0.0	478.7200484393739	801.2167605002944	0.0	532.6025855123563	619.9562256563731	0.0	530.5459885908442	749.36562458628	0.0	452.2314540629845	810.0310983731113	0.0
138	4.613529411764706	553.2977389505398	834.196228892943	0.0	537.7648030989922	836.0297276694702	0.0	554.5188976029948	1001.0610001321705	0.0	578.6949912060265	1164.1806925618039	0.0	508.83718869328754	1190.887473976601	0.0	508.05321968782084	1184.9359092562179	0.0	587.6767972775051	1187.9042700894797	0.0	566.8773559531833	836.1088873779624	0.0	535.2234913146083	995.3480739692496	0.0	495.98198325952427	1166.6226988070484	0.0	426.1750235682367	1193.609254121302	0.0	446.78447355105476	1199.2952448640456	0.0	506.29737300645235	1188.2929949185443	0.0	514.8590530181982	601.6244556247905	0.0	455.20861370854703	501.47643217397297	0.0	449.0504121501787	576.4273313443209	0.0	510.76856234428425	630.1872178502548	0.0	507.9860249048348	738.672101654589	0.0	463.6883268709735	783.5536528810482	0.0	536.4956988055295	620.3088983464676	0.0	544.931247057247	748.9464829933911	0.0	464.9029720299311	810.4205453504061	0.0
